<mxfile host="app.diagrams.net" modified="2022-11-29T17:04:16.694Z" agent="5.0 (Windows NT 10.0; Win64; x64) AppleWebKit/537.36 (KHTML, like Gecko) Chrome/107.0.0.0 Safari/537.36" version="20.6.0" etag="1mnOGPhXKVh9v5scNMVr" type="github">
  <diagram id="RS0vkaZA22Cbk-yklAYx" name="Page-1">
    <mxGraphModel dx="1719" dy="1620" grid="1" gridSize="10" guides="1" tooltips="1" connect="1" arrows="1" fold="1" page="1" pageScale="1" pageWidth="850" pageHeight="1100" math="0" shadow="0">
      <root>
        <mxCell id="0" />
        <mxCell id="1" parent="0" />
        <mxCell id="9wLhjAaW58Y8_-gMPTMM-1" value="" style="shape=mxgraph.cisco.people.androgenous_person;html=1;pointerEvents=1;dashed=0;fillColor=#036897;strokeColor=#ffffff;strokeWidth=2;verticalLabelPosition=bottom;verticalAlign=top;align=center;outlineConnect=0;" vertex="1" parent="1">
          <mxGeometry x="90" y="240" width="69" height="82" as="geometry" />
        </mxCell>
        <mxCell id="9wLhjAaW58Y8_-gMPTMM-2" value="" style="rounded=0;whiteSpace=wrap;html=1;fillColor=#fff2cc;strokeColor=#d6b656;" vertex="1" parent="1">
          <mxGeometry x="-50" y="-100" width="950" height="630" as="geometry" />
        </mxCell>
        <mxCell id="9wLhjAaW58Y8_-gMPTMM-3" value="" style="shape=mxgraph.cisco.people.androgenous_person;html=1;pointerEvents=1;dashed=0;fillColor=#036897;strokeColor=#ffffff;strokeWidth=2;verticalLabelPosition=bottom;verticalAlign=top;align=center;outlineConnect=0;" vertex="1" parent="1">
          <mxGeometry x="170" y="210" width="69" height="82" as="geometry" />
        </mxCell>
        <mxCell id="9wLhjAaW58Y8_-gMPTMM-4" value="" style="endArrow=classic;html=1;rounded=0;" edge="1" parent="1">
          <mxGeometry width="50" height="50" relative="1" as="geometry">
            <mxPoint x="230" y="220" as="sourcePoint" />
            <mxPoint x="280" y="170" as="targetPoint" />
            <Array as="points" />
          </mxGeometry>
        </mxCell>
        <mxCell id="9wLhjAaW58Y8_-gMPTMM-5" value="" style="dashed=0;outlineConnect=0;html=1;align=center;labelPosition=center;verticalLabelPosition=bottom;verticalAlign=top;shape=mxgraph.weblogos.github" vertex="1" parent="1">
          <mxGeometry x="290" y="110" width="70" height="70" as="geometry" />
        </mxCell>
        <mxCell id="9wLhjAaW58Y8_-gMPTMM-6" value="" style="shape=image;html=1;verticalAlign=top;verticalLabelPosition=bottom;labelBackgroundColor=#ffffff;imageAspect=0;aspect=fixed;image=https://cdn4.iconfinder.com/data/icons/ionicons/512/icon-social-github-outline-128.png" vertex="1" parent="1">
          <mxGeometry x="470" y="90" width="74" height="74" as="geometry" />
        </mxCell>
        <mxCell id="9wLhjAaW58Y8_-gMPTMM-7" value="" style="endArrow=classic;html=1;rounded=0;entryX=0;entryY=0.75;entryDx=0;entryDy=0;" edge="1" parent="1" source="9wLhjAaW58Y8_-gMPTMM-5" target="9wLhjAaW58Y8_-gMPTMM-6">
          <mxGeometry width="50" height="50" relative="1" as="geometry">
            <mxPoint x="375" y="160" as="sourcePoint" />
            <mxPoint x="450" y="110" as="targetPoint" />
            <Array as="points" />
          </mxGeometry>
        </mxCell>
        <mxCell id="9wLhjAaW58Y8_-gMPTMM-9" value="" style="aspect=fixed;perimeter=ellipsePerimeter;html=1;align=center;shadow=0;dashed=0;fontColor=#4277BB;labelBackgroundColor=#ffffff;fontSize=12;spacingTop=3;image;image=img/lib/ibm/data/file_repository.svg;" vertex="1" parent="1">
          <mxGeometry x="640" y="97" width="60" height="60" as="geometry" />
        </mxCell>
        <mxCell id="9wLhjAaW58Y8_-gMPTMM-10" value="" style="endArrow=classic;html=1;rounded=0;" edge="1" parent="1" source="9wLhjAaW58Y8_-gMPTMM-6" target="9wLhjAaW58Y8_-gMPTMM-9">
          <mxGeometry width="50" height="50" relative="1" as="geometry">
            <mxPoint x="574" y="152" as="sourcePoint" />
            <mxPoint x="624" y="102" as="targetPoint" />
            <Array as="points" />
          </mxGeometry>
        </mxCell>
        <mxCell id="9wLhjAaW58Y8_-gMPTMM-11" value="" style="aspect=fixed;perimeter=ellipsePerimeter;html=1;align=center;shadow=0;dashed=0;spacingTop=3;image;image=img/lib/active_directory/web_server.svg;" vertex="1" parent="1">
          <mxGeometry x="680" y="210" width="70.4" height="88" as="geometry" />
        </mxCell>
        <mxCell id="9wLhjAaW58Y8_-gMPTMM-12" value="" style="endArrow=classic;html=1;rounded=0;" edge="1" parent="1" source="9wLhjAaW58Y8_-gMPTMM-9" target="9wLhjAaW58Y8_-gMPTMM-11">
          <mxGeometry width="50" height="50" relative="1" as="geometry">
            <mxPoint x="690.2" y="207" as="sourcePoint" />
            <mxPoint x="740.2" y="157" as="targetPoint" />
            <Array as="points" />
          </mxGeometry>
        </mxCell>
        <mxCell id="gpk2IuvOmAacFOFlnmyh-2" value="Devops engineer" style="text;html=1;strokeColor=none;fillColor=none;align=center;verticalAlign=middle;whiteSpace=wrap;rounded=0;" vertex="1" parent="1">
          <mxGeometry x="90" y="220" width="70" height="40" as="geometry" />
        </mxCell>
        <mxCell id="gpk2IuvOmAacFOFlnmyh-3" value="Github" style="text;html=1;strokeColor=none;fillColor=none;align=center;verticalAlign=middle;whiteSpace=wrap;rounded=0;" vertex="1" parent="1">
          <mxGeometry x="260" y="70" width="70" height="30" as="geometry" />
        </mxCell>
        <mxCell id="gpk2IuvOmAacFOFlnmyh-4" value="Github action" style="text;html=1;strokeColor=none;fillColor=none;align=center;verticalAlign=middle;whiteSpace=wrap;rounded=0;" vertex="1" parent="1">
          <mxGeometry x="450" y="50" width="90" height="40" as="geometry" />
        </mxCell>
        <mxCell id="gpk2IuvOmAacFOFlnmyh-5" value="Docker hub repository" style="text;html=1;strokeColor=none;fillColor=none;align=center;verticalAlign=middle;whiteSpace=wrap;rounded=0;" vertex="1" parent="1">
          <mxGeometry x="660" y="40" width="70" height="40" as="geometry" />
        </mxCell>
        <mxCell id="gpk2IuvOmAacFOFlnmyh-6" value="Minikube" style="text;html=1;strokeColor=none;fillColor=none;align=center;verticalAlign=middle;whiteSpace=wrap;rounded=0;" vertex="1" parent="1">
          <mxGeometry x="740" y="220" width="70" height="40" as="geometry" />
        </mxCell>
        <mxCell id="gpk2IuvOmAacFOFlnmyh-7" value="commit" style="text;html=1;strokeColor=none;fillColor=none;align=center;verticalAlign=middle;whiteSpace=wrap;rounded=0;" vertex="1" parent="1">
          <mxGeometry x="239" y="180" width="70" height="50" as="geometry" />
        </mxCell>
        <mxCell id="gpk2IuvOmAacFOFlnmyh-9" value="Build" style="text;html=1;strokeColor=none;fillColor=none;align=center;verticalAlign=middle;whiteSpace=wrap;rounded=0;" vertex="1" parent="1">
          <mxGeometry x="380" y="100" width="70" height="40" as="geometry" />
        </mxCell>
        <mxCell id="gpk2IuvOmAacFOFlnmyh-10" value="push" style="text;html=1;strokeColor=none;fillColor=none;align=center;verticalAlign=middle;whiteSpace=wrap;rounded=0;" vertex="1" parent="1">
          <mxGeometry x="550" y="80" width="70" height="40" as="geometry" />
        </mxCell>
        <mxCell id="gpk2IuvOmAacFOFlnmyh-11" value="pull" style="text;html=1;strokeColor=none;fillColor=none;align=center;verticalAlign=middle;whiteSpace=wrap;rounded=0;" vertex="1" parent="1">
          <mxGeometry x="635" y="170" width="70" height="40" as="geometry" />
        </mxCell>
        <mxCell id="gpk2IuvOmAacFOFlnmyh-13" value="&lt;h1&gt;Devoloping with docker&lt;/h1&gt;" style="text;html=1;strokeColor=none;fillColor=none;spacing=5;spacingTop=-20;whiteSpace=wrap;overflow=hidden;rounded=0;" vertex="1" parent="1">
          <mxGeometry x="325" y="-70" width="340" height="120" as="geometry" />
        </mxCell>
      </root>
    </mxGraphModel>
  </diagram>
</mxfile>
